<svg width="78" height="86" viewBox="0 0 78 86" fill="none" xmlns="http://www.w3.org/2000/svg">
<path d="M56.6777 44.0111C61.2019 39.4869 64 33.2369 64 26.3334C64 12.5262 52.8071 1.33337 39 1.33337C25.1929 1.33337 14 12.5262 14 26.3334C14 33.2369 16.7981 39.4869 21.3223 44.0111" stroke="#EEC28D" stroke-width="1.75" stroke-linecap="round"/>
<path d="M1.5 84.6667L3.58333 74.25L26.5 57.5834L39 70.0834L51.5 57.5834L74.4167 74.25L76.5 84.6667" stroke="#EEC28D" stroke-width="1.75" stroke-linecap="round" stroke-linejoin="round"/>
<path d="M16.0698 36.7648C16.0963 28.201 17.4896 21.946 20.2502 17.9998C24.3913 12.0806 27.3065 12.5157 29.4282 13.4377C31.5498 14.3596 32.7973 20.3838 36.3411 22.1202C39.8848 23.8567 48.9538 24.071 52.06 26.1598C55.1663 28.2488 62.2702 32.1342 60.4992 38.7675" stroke="#EEC28D" stroke-width="1.75"/>
</svg>
